<?xml version="1.0" encoding="UTF-8" standalone="no"?>
<svg
   xmlns:dc="http://purl.org/dc/elements/1.1/"
   xmlns:cc="http://creativecommons.org/ns#"
   xmlns:rdf="http://www.w3.org/1999/02/22-rdf-syntax-ns#"
   xmlns:svg="http://www.w3.org/2000/svg"
   xmlns="http://www.w3.org/2000/svg"
   xmlns:sodipodi="http://sodipodi.sourceforge.net/DTD/sodipodi-0.dtd"
   xmlns:inkscape="http://www.inkscape.org/namespaces/inkscape"
   version="1.1"
   id="svg2"
   xml:space="preserve"
   width="793.70135"
   height="377.95334"
   viewBox="0 0 793.70135 377.95334"
   sodipodi:docname="high res alric logo 3.ai"><metadata
     id="metadata8"><rdf:RDF><cc:Work
         rdf:about=""><dc:format>image/svg+xml</dc:format><dc:type
           rdf:resource="http://purl.org/dc/dcmitype/StillImage" /></cc:Work></rdf:RDF></metadata><defs
     id="defs6"><clipPath
       clipPathUnits="userSpaceOnUse"
       id="clipPath18"><path
         d="M 0,283.465 H 595.276 V 0 H 0 Z"
         id="path16" /></clipPath></defs><sodipodi:namedview
     pagecolor="#ffffff"
     bordercolor="#666666"
     borderopacity="1"
     objecttolerance="10"
     gridtolerance="10"
     guidetolerance="10"
     inkscape:pageopacity="0"
     inkscape:pageshadow="2"
     inkscape:window-width="640"
     inkscape:window-height="480"
     id="namedview4" /><g
     id="g10"
     inkscape:groupmode="layer"
     inkscape:label="high res alric logo 3"
     transform="matrix(1.3333333,0,0,-1.3333333,0,377.95333)"><g
       id="g12"><g
         id="g14"
         clip-path="url(#clipPath18)"><g
           id="g20"
           transform="translate(110.2944,186.386)"><path
             d="m 0,0 -53.279,-53.332 c -1.806,-1.955 -2.708,-4.227 -2.708,-6.832 0,-2.816 0.993,-5.184 2.977,-7.099 1.986,-1.914 4.351,-2.871 7.094,-2.871 h 70.065 c 2.814,0 5.197,0.971 7.147,2.926 1.95,1.951 2.925,4.298 2.925,7.044 v 50.193 c 0,2.816 -0.995,5.184 -2.981,7.099 C 29.256,-0.957 26.893,0 24.149,0 Z m -65.983,10.077 h 90.175 c 5.555,0 10.284,-1.95 14.178,-5.855 3.9,-3.9 5.847,-8.633 5.847,-14.198 v -50.183 c 0,-5.567 -1.952,-10.299 -5.852,-14.203 -3.9,-3.899 -8.631,-5.85 -14.193,-5.85 h -70.11 c -5.562,0 -10.293,1.951 -14.193,5.855 -3.903,3.899 -5.852,8.631 -5.852,14.198 0,2.746 0.451,5.276 1.355,7.588 0.904,2.313 2.26,4.373 4.064,6.177 7.587,7.661 16.659,16.765 27.212,27.316 4.913,4.915 9.825,9.827 14.742,14.743 2.89,2.889 4.371,4.335 4.444,4.335 h -51.817 z"
             style="fill:#6b2772;fill-opacity:1;fill-rule:nonzero;stroke:none"
             id="path22" /></g><g
           id="g24"
           transform="translate(170.209,196.4626)"><path
             d="m 0,0 h 10.077 v -70.24 c 0,-2.817 0.992,-5.185 2.977,-7.1 1.988,-1.914 4.354,-2.871 7.099,-2.871 h 90.143 V -90.289 H 20.128 c -5.562,0 -10.293,1.951 -14.195,5.851 -3.903,3.904 -5.852,8.635 -5.852,14.203 z"
             style="fill:#6b2772;fill-opacity:1;fill-rule:nonzero;stroke:none"
             id="path26" /></g><g
           id="g28"
           transform="translate(401.3057,196.4626)"><path
             d="m 0,0 h 4.988 v -10.077 h -90.141 c -2.818,0 -5.202,-0.978 -7.154,-2.927 -1.949,-1.95 -2.924,-4.298 -2.924,-7.044 v -70.241 h -10.077 v 70.236 c 0,5.565 1.95,10.299 5.855,14.199 3.905,3.904 8.64,5.854 14.209,5.854 z"
             style="fill:#6b2772;fill-opacity:1;fill-rule:nonzero;stroke:none"
             id="path30" /></g><path
           d="m 421.898,196.301 h 10.076 v -90.128 h -10.076 z m 0,30.15 h 10.076 v -15.075 h -10.076 z"
           style="fill:#6b2772;fill-opacity:1;fill-rule:nonzero;stroke:none"
           id="path32" /><g
           id="g34"
           transform="translate(552.5596,196.4626)"><path
             d="m 0,0 h 4.983 v -10.077 h -90.142 c -2.743,0 -5.092,-0.978 -7.042,-2.927 -1.949,-1.95 -2.925,-4.298 -2.925,-7.044 V -70.24 c 0,-2.746 0.976,-5.094 2.925,-7.044 1.95,-1.955 4.299,-2.927 7.042,-2.927 H 4.983 v -10.078 h -90.142 c -5.563,0 -10.294,1.951 -14.194,5.851 -3.899,3.904 -5.849,8.635 -5.849,14.203 v 50.182 c 0,5.565 1.95,10.299 5.849,14.199 3.9,3.904 8.631,5.854 14.194,5.854 z"
             style="fill:#6b2772;fill-opacity:1;fill-rule:nonzero;stroke:none"
             id="path36" /></g></g></g></g></svg>
